HIERARCHY
ROOT Hips
{
	OFFSET	0.00	0.00	0.00
	CHANNELS 6 Xposition Yposition Zposition Zrotation Xrotation Yrotation
	JOINT Spine
	{
		OFFSET	 0.00	0.01	 0.00
		CHANNELS 3 Zrotation Xrotation Yrotation
		JOINT Spine1
		{
			OFFSET	 0.00	 2.45913012437421	 0.00
			CHANNELS 3 Zrotation Xrotation Yrotation
            JOINT Neck
            {
                OFFSET	 0.00	 2.48462964506057	 0.00
                CHANNELS 3 Zrotation Xrotation Yrotation
                JOINT Head
                {
                    OFFSET	 0.00	 0.927524780924562	 0.00
                    CHANNELS 3 Zrotation Xrotation Yrotation
                    End Site 
                    {
                        OFFSET	 0.00	 1.14999962169752	 0.00
                    }
                }
            }
			JOINT LeftShoulder
			{
				OFFSET	 0.00	 2.48462964506057	 0.00
				CHANNELS 3 Zrotation Xrotation Yrotation
				JOINT LeftUpArm
				{
					OFFSET	 0.00	 1.24881979654096	 0.00
					CHANNELS 3 Zrotation Xrotation Yrotation
					JOINT LeftForeArm
					{
						OFFSET	 0.00	2.59758046908119	 0.00
						CHANNELS 3 Zrotation Xrotation Yrotation
						JOINT LeftHand
						{
							OFFSET	 0.00	2.45542024364365	 0.00
							CHANNELS 3 Zrotation Xrotation Yrotation
							JOINT LeftHandThumb 
							{
								OFFSET	 0.00	0.00	 0.00
								CHANNELS 3 Zrotation Xrotation Yrotation
								End Site
								{
									OFFSET	 0.00	0.00	1.00000003353624
								}
							}
							JOINT L_Wrist_End 
							{
								OFFSET	 0.00	0.99999967115358	 0.00
								CHANNELS 3 Zrotation Xrotation Yrotation
								End Site 
								{
									OFFSET	 0.00	 0.00	 0.00
								}
							}
						}
					}
				}
			}
			JOINT RightShoulder
			{
				OFFSET	 0.00	 2.48462964506057	 0.00
				CHANNELS 3 Zrotation Xrotation Yrotation
				JOINT RightUpArm
				{
					OFFSET	 0.00	 1.24881979654096	 0.00
					CHANNELS 3 Zrotation Xrotation Yrotation
					JOINT RightForeArm
					{
						OFFSET	 0.00	2.59758046908119	 0.00
						CHANNELS 3 Zrotation Xrotation Yrotation
						JOINT RightHand
						{
							OFFSET	 0.00	2.45542024364365	 0.00
							CHANNELS 3 Zrotation Xrotation Yrotation
							JOINT RightHandThumb 
							{
								OFFSET	 0.00	0.00	 0.00
								CHANNELS 3 Zrotation Xrotation Yrotation
								End Site
								{
									OFFSET	 0.00	0.00	1.00000003353624
								}
							}
							JOINT R_Wrist_End 
							{
								OFFSET	 0.00	0.99999967115358	 0.00
								CHANNELS 3 Zrotation Xrotation Yrotation
								End Site 
								{
									OFFSET	 0.00	 0.00	 0.00
								}
							}
						}
					}
				}
			}
		}
	}
	JOINT LeftUpLeg
	{
		OFFSET	 1.2719394002717	 0.00	 0.00
		CHANNELS 3 Zrotation Xrotation Yrotation
		JOINT LeftLowLeg
		{
			OFFSET	 0.00	-4.3429100912261	 0.00
			CHANNELS 3 Zrotation Xrotation Yrotation
			JOINT LeftFoot
			{
				OFFSET	 0.00	-4.48767017425826	 0.00
				CHANNELS 3 Zrotation Xrotation Yrotation
				JOINT LeftToeBase
                {
                    OFFSET	 0.00	0.00	 1.51507020887566
                    CHANNELS 3 Zrotation Xrotation Yrotation
                    End Site 
                    {
                        OFFSET	 0.00	0.00	 0.75000010571191
                    }
                }
			}
		}
	}
	JOINT RightUpLeg
	{
		OFFSET	 -1.2719393604653	 0.00	 0.00
		CHANNELS 3 Zrotation Xrotation Yrotation
		JOINT RightLowLeg
		{
			OFFSET	 0.00	-4.3429100912261	 0.00
			CHANNELS 3 Zrotation Xrotation Yrotation
			JOINT RightFoot
			{
				OFFSET	 0.00	-4.48767017425826	 0.00
				CHANNELS 3 Zrotation Xrotation Yrotation
				JOINT RightToeBase
                {
                    OFFSET	 0.00	0.00	 1.51507020887566
                    CHANNELS 3 Zrotation Xrotation Yrotation
                    End Site 
                    {
                        OFFSET	 0.00	0.00	 0.749999965609858
                    }
                }   
			}
		}
	}
}
MOTION 
Frames:	6 
Frame Time: 0.02 
  -1.671750030517578 16.1293994140625 9.300260009765625 -158.969 81.6412 166.823 7.76797 -3.27371 4.9735 1.99462 4.22058 -11.2444 -18.365 59.3774 -11.1441 109.615 -61.858 458.753 -118.7985 -3.0987 9.75739 -0.527005 30.2017 6.76363 0.0 102.571 0.0 46.49 30.3212 35.6229 0.0 0.0 0.0 0.0 0.0 0.0 107.576904 -3.55663 6.36466 -5.26366 13.1331 60.2138 0.0 60.1247 0.0 -39.5375 -4.68082 2.32467 0.0 0.0 0.0 0.0 0.0 0.0 18.0516 -9.68477 6.15139 0.0 17.9152 0.0 -22.8536 10.22458 15.376 0.0 -45.7602 0.0 -1.85739 -14.0404 -3.07152 0.0 21.1859 0.0 15.8203 6.03306 -4.78382 0.0 -37.2433 0.0 
  -1.7274800109863282 16.111500244140625 9.311019897460938 -158.533 81.2619 166.723 7.18821 -3.53537 4.9064 3.78954 3.86315 -11.2031 -23.1147 58.6522 -6.19032 110.136 -63.8351 457.867 -118.8336 -3.42522 10.6568 4.87408 31.9098 -1.11691 0.0 100.036 0.0 47.9629 28.8016 37.3504 0.0 0.0 0.0 0.0 0.0 0.0 107.1634 -3.66692 5.76527 -2.79799 9.55396 56.022 0.0 59.95 0.0 -39.2856 -6.75621 6.07808 0.0 0.0 0.0 0.0 0.0 0.0 17.7573 -9.97761 7.31953 0.0 17.6685 0.0 -25.6335 9.86463 14.0988 0.0 -45.140602 0.0 -1.42648 -13.7729 -3.45096 0.0 20.2366 0.0 15.6399 6.2873497 -4.74253 0.0 -37.244102 0.0 
  -1.7800799560546876 16.091500244140626 9.319619750976562 -157.657 81.0025 165.962 6.54644 -3.66488 4.83413 5.54107 3.38177 -11.1493 -27.5565 58.0262 -1.41136 109.984 -65.6263 456.436 -118.5048 -3.74529 10.4468 8.26209 32.4616 -9.20972 0.0 96.5648 0.0 44.1676 28.8451 39.6568 0.0 0.0 0.0 0.0 0.0 0.0 107.1407 -4.40668 3.60078 -0.836307 7.17998 52.6158 0.0 59.1251 0.0 -38.1769 -6.74522 9.84829 0.0 0.0 0.0 0.0 0.0 0.0 17.5162 -10.0945 7.78598 0.0 17.7551 0.0 -26.9686 9.759911 12.6347 0.0 -44.9032 0.0 -0.904553 -13.4783 -3.365 0.0 19.4371 0.0 15.5775 6.5446796 -4.75748 0.0 -37.1594 0.0 
  -1.828300018310547 16.07050048828125 9.324920043945312 -156.083 80.9054 164.42 5.9806 -3.70588 4.69704 7.07486 3.11039 -11.1823 -31.1403 57.0978 2.70063 109.187 -67.1752 454.474 -118.2298 -4.48849 9.89618 11.1398 32.9893 -16.4045 0.0 93.1893 0.0 46.3661 21.2085 37.1213 0.0 0.0 0.0 0.0 0.0 0.0 106.9934 -4.18483 3.12541 1.80208 3.6967 46.695 0.0 59.1554 0.0 -35.7797 -9.73702 13.8399 0.0 0.0 0.0 0.0 0.0 0.0 17.3591 -10.1334 7.47625 0.0 18.324 0.0 -26.16 9.32016 10.6373 0.0 -44.2532 0.0 -0.275719 -13.069 -2.92126 0.0 18.7792 0.0 15.6638 6.6925697 -4.98888 0.0 -36.985397 0.0 
  -1.8694000244140625 16.046400146484373 9.329979858398438 -154.922 80.7684 163.059 5.43263 -3.79162 4.5534 8.37111 2.63814 -11.2006 -34.8336 56.2737 7.02295 108.119 -68.578 452.167 -118.2767 -5.59908 9.27334 13.7652 33.8784 -23.2506 0.0 87.6406 0.0 48.9385 17.1929 33.6417 0.0 0.0 0.0 0.0 0.0 0.0 107.095 -4.06389 1.84362 4.46209 1.37788 42.6077 0.0 58.4767 0.0 -31.6884 -9.79236 16.4911 0.0 0.0 0.0 0.0 0.0 0.0 17.0285 -10.0507 5.49158 0.0 18.9925 0.0 -25.4789 8.80969 8.47469 0.0 -44.9874 0.0 0.313514 -12.7472 -2.27281 0.0 18.1835 0.0 15.7072 6.84589 -5.2491 0.0 -36.8214 0.0 
  -1.9046000671386718 16.0206005859375 9.334119873046875 -153.916 80.6213 161.755 5.02325 -4.03468 4.48556 9.23815 2.23146 -11.1606 -37.4807 55.7898 10.1712 106.48 -69.5263 449.677 -118.1611 -6.35417 8.57331 15.0297 34.1284 -29.0436 0.0 82.6649 0.0 49.7955 11.5031 29.7556 0.0 0.0 0.0 0.0 0.0 0.0 107.356 -3.74499 0.560591 7.40327 -0.919883 38.2492 0.0 57.6791 0.0 -29.2028 -9.91746 18.3553 0.0 0.0 0.0 0.0 0.0 0.0 16.7003 -10.0284 3.64372 0.0 19.9551 0.0 -24.0452 8.323071 5.29737 0.0 -44.9086 0.0 0.853717 -12.4075 -1.76543 0.0 17.5354 0.0 15.7435 7.02703 -5.42016 0.0 -36.7029 0.0 
